# xmcd
#
# Track frame offsets:
#	150
#	17177
#	32786
#	47803
#	64965
#	84445
#	101580
#	118041
#	139841
#	153518
#	174279
#
# Disc length: 2617 seconds
#
# Revision: 1
# Processed by: cddbd v1.4PL0 Copyright (c) Steve Scherf et al.
# Submitted via: audiograbber 1.81.03
#
DISCID=900a370b
DTITLE=Greg Bowman Blues - Blue Roses
DYEAR=2003
DGENRE=Blues
TTITLE0=Desiree
TTITLE1=Roachman
TTITLE2=Everything You Need
TTITLE3=The Great Divide
TTITLE4=Lucky Dog
TTITLE5=More Than Enough
TTITLE6=Kiss Me Like U Mean It
TTITLE7=Slide
TTITLE8=Sugar Bee
TTITLE9=Uncarin'
TTITLE10=Finalize
EXTD=
EXTT0=
EXTT1=
EXTT2=
EXTT3=
EXTT4=
EXTT5=
EXTT6=
EXTT7=
EXTT8=
EXTT9=
EXTT10=
PLAYORDER=
